<?xml version="1.0" encoding="utf-8"?>
<!-- Generator: Adobe Illustrator 22.0.1, SVG Export Plug-In . SVG Version: 6.00 Build 0)  -->
<svg version="1.1" id="Layer_1" xmlns="http://www.w3.org/2000/svg" xmlns:xlink="http://www.w3.org/1999/xlink" x="0px" y="0px"
	 viewBox="0 0 1382.7 55.8" style="enable-background:new 0 0 382.7 55.8;" xml:space="preserve">
<style type="text/css">
	.st0{fill:#2B3990;}
</style>
<g>
	<path class="st0" d="M153.4,7.2"/>
	<path class="st0" d="M45.2,55.7H27.9c-15.4,0-27.9-12.5-27.9-27.9c0-7.4,2.9-14.4,8.2-19.7C13.5,2.9,20.5,0,27.9,0h7.9
		c3.5,0,6.3,2.8,6.3,6.3s-2.8,6.3-6.3,6.3h-7.9c-4.1,0-7.9,1.6-10.8,4.5c-2.9,2.9-4.5,6.7-4.5,10.8c0,8.4,6.9,15.3,15.3,15.3h17.2
		c4.1,0,7.9-1.6,10.8-4.5c2.9-2.9,4.5-6.7,4.5-10.8c0-3.5,2.8-6.3,6.3-6.3s6.3,2.8,6.3,6.3c0,7.4-2.9,14.4-8.2,19.7
		C59.6,52.8,52.6,55.7,45.2,55.7z"/>
	<path class="st0" d="M86,55.7h-7.9c-3.5,0-6.3-2.8-6.3-6.3s2.8-6.3,6.3-6.3H86c4.1,0,7.9-1.6,10.8-4.5c2.9-2.9,4.5-6.7,4.5-10.8
		c0-8.4-6.9-15.3-15.3-15.3H68.7c-4.1,0-7.9,1.6-10.8,4.5c-2.9,2.9-4.5,6.7-4.5,10.8c0,3.5-2.8,6.3-6.3,6.3s-6.3-2.8-6.3-6.3
		c0-7.4,2.9-14.4,8.2-19.7C54.3,2.9,61.3,0,68.7,0H86c15.4,0,27.9,12.5,27.9,27.9c0,7.4-2.9,14.4-8.2,19.7
		C100.4,52.8,93.4,55.7,86,55.7z"/>
	<g>
		<path class="st0" d="M165.3,9.4c-1.2,0-1.7-1.3-3.9-2.7c-1.5-1-3.7-1.8-7.4-1.8c-9.6,0-13.9,6.7-13.9,18.6v8.8
			c0,12.5,3.9,18.6,13.5,18.6c3.9,0,6.5-1.2,8.3-2.4c1.7-1.2,2.7-2.3,3.6-2.3c1.4,0,2.1,1,2.1,2.1c0,1-0.9,2.2-2.4,3.3
			c-2.7,2.1-6.9,3.8-11.7,3.8c-13.5,0-18.4-9.3-18.4-23v-8.9c0-13.2,5.2-23,18.8-23c5,0,9.1,1.6,11.3,3.5c1.4,1.2,2.2,2.4,2.2,3.2
			C167.6,8.4,166.8,9.4,165.3,9.4z"/>
		<path class="st0" d="M198.3,55.2c-1.3,0-2.4-1-2.4-2.4V31.2c0-5.4-1.5-9-7.8-9c-5,0-8.5,2.1-10.3,5.5v25.2c0,1.3-1.1,2.4-2.4,2.4
			c-1.3,0-2.4-1-2.4-2.4v-49c0-1.3,1-2.4,2.4-2.4c1.3,0,2.4,1,2.4,2.4v18c2.4-2.6,6-4,11-4c9.4,0,11.9,5.8,11.9,13.2v21.9
			C200.7,54.2,199.6,55.2,198.3,55.2z"/>
		<path class="st0" d="M234.3,35.9c0,1.3-0.9,2-1.9,2H211v2.2c0,6.5,2.8,10.9,9.5,10.9c3.5,0,5.6-0.5,7.1-1.1
			c1.7-0.7,2.6-1.4,3.7-1.4c1,0,1.8,0.8,1.8,2c0,1.2-1.4,2.3-3.5,3.1c-2.4,1-5.8,1.6-9.3,1.6c-10.2,0-13.9-7.1-13.9-15.4V33
			c0-8.2,3.8-15.2,14-15.2c10.4,0,13.9,6.6,13.9,15.3V35.9z M220.4,21.7c-6.7,0-9.4,4.3-9.4,10.8v1.4h18.7v-1.5
			C229.7,26,227.4,21.7,220.4,21.7z"/>
		<path class="st0" d="M260,23.5c-2-1.1-4.1-1.5-6.8-1.5c-6.2,0-9.7,4.9-9.7,11.8v5.4c0,7.4,3.2,11.9,9.6,11.9c2.4,0,4.7-0.4,7-1.7
			c1.3-0.6,2.3-0.1,2.8,0.9c0.5,1.1,0.1,2.3-0.9,2.8c-2.9,1.6-6,2.2-9.1,2.2c-9.8,0-14.1-6.8-14.1-16.2v-5.1
			c0-8.8,4.6-16.2,14.1-16.2c3,0,6.3,0.5,9,2.1c1.1,0.6,1.4,1.8,0.7,2.9C262.3,23.6,261.2,24.1,260,23.5z"/>
		<path class="st0" d="M291.6,55.2c-0.7,0-1.5-0.4-2-1.3c-3.2-6.3-7.4-12.5-11.6-18.1l-5.7,5.8v11.3c0,1.3-1.1,2.4-2.4,2.4
			c-1.3,0-2.4-1-2.4-2.4v-49c0-1.3,1-2.4,2.4-2.4c1.3,0,2.4,1,2.4,2.4v31.9l16.9-17.4c0.9-0.8,2.2-0.8,3.1,0c0.8,0.8,0.8,2.2-0.1,3
			l-11,11.2c4.5,6,8.9,12.7,12.4,19.4C294.7,53.7,293.2,55.2,291.6,55.2z"/>
		<path class="st0" d="M310.2,55.2c-10.2,0-14.3-6.8-14.3-15v-7.4c0-8.3,4-15,14.3-15c10.2,0,14.3,6.7,14.3,15v7.4
			C324.4,48.4,320.4,55.2,310.2,55.2z M319.8,32.8c0-6.4-2.8-10.6-9.6-10.6c-6.9,0-9.6,4.2-9.6,10.6v7.4c0,6.4,2.7,10.6,9.6,10.6
			c6.8,0,9.6-4.2,9.6-10.6V32.8z"/>
		<path class="st0" d="M358.4,55.2c-1,0-2.6-0.6-3.5-1.5c-1-0.9-1.5-1.9-1.8-3c-2.5,2.9-6.3,4.6-11.6,4.6c-9.3,0-11.9-5.9-11.9-13.3
			V20.1c0-1.4,1.1-2.4,2.4-2.4c1.3,0,2.4,1,2.4,2.4v21.6c0,5.6,1.5,9,7.9,9c5.3,0,8.6-2.3,10.3-5.8V20.1c0-1.4,1-2.4,2.4-2.4
			c1.3,0,2.4,1,2.4,2.4v26.4c0,3.2,0.7,4.1,2.4,4.8c0.8,0.4,1.3,1,1.3,1.8C360.8,54.5,359.6,55.2,358.4,55.2z"/>
		<path class="st0" d="M380.5,54.8h-1.8c-10,0-12.1-6.1-12.1-15.4v-17H364c-1.2,0-2.1-1-2.1-2.1c0-1.2,1-2.1,2.1-2.1h2.6V9.3
			c0-1.3,1-2.4,2.4-2.4s2.4,1,2.4,2.4v8.9h7.4c1.2,0,2.1,0.9,2.1,2.1c0,1.2-1,2.1-2.1,2.1h-7.4v17c0,8,1.3,11,7.7,11h1.5
			c1.3,0,2.2,1,2.2,2.2C382.7,53.8,381.8,54.8,380.5,54.8z"/>
	</g>
</g>
</svg>
